<svg xmlns="http://www.w3.org/2000/svg" viewBox="0 0 1366 641" preserveAspectRatio="xMidYMid" width="1366" height="641" style="shape-rendering: auto; display: block; background: rgb(255, 255, 255);"><g data-idx="1"><path d="M 0 383.998 C 228 383.998 455 424.002 683 424.002 C 911 424.002 1138 383.998 1366 383.998 C 1594 383.998 1821 424.002 2049 424.002 C 2277 424.002 2504 383.998 2732 383.998" fill="none" stroke="rgb(56, 149, 217)" stroke-opacity="0" stroke-width="2" data-idx="2" transform="matrix(1,0,0,1,-266.36932373046875,0)">
  
  
  
</path><path d="M 0 385.763 C 228 385.763 455 422.237 683 422.237 C 911 422.237 1138 385.763 1366 385.763 C 1594 385.763 1821 422.237 2049 422.237 C 2277 422.237 2504 385.763 2732 385.763" fill="none" stroke="rgb(53, 151, 218)" stroke-opacity="0" stroke-width="2" data-idx="6" transform="matrix(1,0,0,1,-273.654541015625,0)">
  
  
  
</path><path d="M 0 387.577 C 228 387.577 455 420.423 683 420.423 C 911 420.423 1138 387.577 1366 387.577 C 1594 387.577 1821 420.423 2049 420.423 C 2277 420.423 2504 387.577 2732 387.577" fill="none" stroke="rgb(51, 153, 219)" stroke-opacity="0" stroke-width="2" data-idx="10" transform="matrix(1,0,0,1,-280.93975830078125,0)">
  
  
  
</path><path d="M 0 389.438 C 228 389.438 455 418.562 683 418.562 C 911 418.562 1138 389.438 1366 389.438 C 1594 389.438 1821 418.562 2049 418.562 C 2277 418.562 2504 389.438 2732 389.438" fill="none" stroke="rgb(49, 154, 220)" stroke-opacity="0" stroke-width="2" data-idx="14" transform="matrix(1,0,0,1,-288.2253112792969,0)">
  
  
  
</path><path d="M 0 391.341 C 228 391.341 455 416.659 683 416.659 C 911 416.659 1138 391.341 1366 391.341 C 1594 391.341 1821 416.659 2049 416.659 C 2277 416.659 2504 391.341 2732 391.341" fill="none" stroke="rgb(47, 156, 220)" stroke-opacity="0" stroke-width="2" data-idx="18" transform="matrix(1,0,0,1,-295.5105285644531,0)">
  
  
  
</path><path d="M 0 393.282 C 228 393.282 455 414.718 683 414.718 C 911 414.718 1138 393.282 1366 393.282 C 1594 393.282 1821 414.718 2049 414.718 C 2277 414.718 2504 393.282 2732 393.282" fill="none" stroke="rgb(45, 157, 221)" stroke-opacity="0" stroke-width="2" data-idx="22" transform="matrix(1,0,0,1,-302.7957458496094,0)">
  
  
  
</path><path d="M 0 395.255 C 228 395.255 455 412.745 683 412.745 C 911 412.745 1138 395.255 1366 395.255 C 1594 395.255 1821 412.745 2049 412.745 C 2277 412.745 2504 395.255 2732 395.255" fill="none" stroke="rgb(44, 157, 221)" stroke-opacity="0" stroke-width="2" data-idx="26" transform="matrix(1,0,0,1,-310.0813293457031,0)">
  
  
  
</path><path d="M 0 397.256 C 228 397.256 455 410.744 683 410.744 C 911 410.744 1138 397.256 1366 397.256 C 1594 397.256 1821 410.744 2049 410.744 C 2277 410.744 2504 397.256 2732 397.256" fill="none" stroke="rgb(43, 158, 222)" stroke-opacity="0" stroke-width="2" data-idx="30" transform="matrix(1,0,0,1,-317.3665466308594,0)">
  
  
  
</path><path d="M 0 399.277 C 228 399.277 455 408.723 683 408.723 C 911 408.723 1138 399.277 1366 399.277 C 1594 399.277 1821 408.723 2049 408.723 C 2277 408.723 2504 399.277 2732 399.277" fill="none" stroke="rgb(43, 159, 222)" stroke-opacity="0" stroke-width="2" data-idx="34" transform="matrix(1,0,0,1,-324.6517639160156,0)">
  
  
  
</path><path d="M 0 401.314 C 228 401.314 455 406.686 683 406.686 C 911 406.686 1138 401.314 1366 401.314 C 1594 401.314 1821 406.686 2049 406.686 C 2277 406.686 2504 401.314 2732 401.314" fill="none" stroke="rgb(42, 159, 222)" stroke-opacity="0" stroke-width="2" data-idx="38" transform="matrix(1,0,0,1,-331.93731689453125,0)">
  
  
  
</path><path d="M 0 403.36 C 228 403.36 455 404.64 683 404.64 C 911 404.64 1138 403.36 1366 403.36 C 1594 403.36 1821 404.64 2049 404.64 C 2277 404.64 2504 403.36 2732 403.36" fill="none" stroke="rgb(42, 159, 222)" stroke-opacity="0" stroke-width="2" data-idx="42" transform="matrix(1,0,0,1,-339.2225341796875,0)">
  
  
  
</path><path d="M 0 405.407 C 228 405.407 455 402.593 683 402.593 C 911 402.593 1138 405.407 1366 405.407 C 1594 405.407 1821 402.593 2049 402.593 C 2277 402.593 2504 405.407 2732 405.407" fill="none" stroke="rgb(42, 159, 222)" stroke-opacity="0" stroke-width="2" data-idx="46" transform="matrix(1,0,0,1,-346.5077819824219,0)">
  
  
  
</path><path d="M 0 407.451 C 228 407.451 455 400.549 683 400.549 C 911 400.549 1138 407.451 1366 407.451 C 1594 407.451 1821 400.549 2049 400.549 C 2277 400.549 2504 407.451 2732 407.451" fill="none" stroke="rgb(42, 159, 222)" stroke-opacity="0" stroke-width="2" data-idx="50" transform="matrix(1,0,0,1,-353.7933044433594,0)">
  
  
  
</path><path d="M 0 409.482 C 228 409.482 455 398.518 683 398.518 C 911 398.518 1138 409.482 1366 409.482 C 1594 409.482 1821 398.518 2049 398.518 C 2277 398.518 2504 409.482 2732 409.482" fill="none" stroke="rgb(42, 159, 222)" stroke-opacity="0" stroke-width="2" data-idx="54" transform="matrix(1,0,0,1,-361.0785217285156,0)">
  
  
  
</path><path d="M 0 411.497 C 228 411.497 455 396.503 683 396.503 C 911 396.503 1138 411.497 1366 411.497 C 1594 411.497 1821 396.503 2049 396.503 C 2277 396.503 2504 411.497 2732 411.497" fill="none" stroke="rgb(42, 160, 221)" stroke-opacity="0" stroke-width="2" data-idx="58" transform="matrix(1,0,0,1,-368.3637390136719,0)">
  
  
  
</path><path d="M 0 413.488 C 228 413.488 455 394.512 683 394.512 C 911 394.512 1138 413.488 1366 413.488 C 1594 413.488 1821 394.512 2049 394.512 C 2277 394.512 2504 413.488 2732 413.488" fill="none" stroke="rgb(42, 160, 221)" stroke-opacity="0" stroke-width="2" data-idx="62" transform="matrix(1,0,0,1,-375.6493225097656,0)">
  
  
  
</path><path d="M 0 415.45 C 228 415.45 455 392.55 683 392.55 C 911 392.55 1138 415.45 1366 415.45 C 1594 415.45 1821 392.55 2049 392.55 C 2277 392.55 2504 415.45 2732 415.45" fill="none" stroke="rgb(42, 161, 220)" stroke-opacity="0" stroke-width="2" data-idx="66" transform="matrix(1,0,0,1,-382.9345397949219,0)">
  
  
  
</path><path d="M 0 417.377 C 228 417.377 455 390.623 683 390.623 C 911 390.623 1138 417.377 1366 417.377 C 1594 417.377 1821 390.623 2049 390.623 C 2277 390.623 2504 417.377 2732 417.377" fill="none" stroke="rgb(42, 161, 220)" stroke-opacity="0" stroke-width="2" data-idx="70" transform="matrix(1,0,0,1,-390.2197265625,0)">
  
  
  
</path><path d="M 0 419.265 C 228 419.265 455 388.735 683 388.735 C 911 388.735 1138 419.265 1366 419.265 C 1594 419.265 1821 388.735 2049 388.735 C 2277 388.735 2504 419.265 2732 419.265" fill="none" stroke="rgb(42, 162, 219)" stroke-opacity="0" stroke-width="2" data-idx="74" transform="matrix(1,0,0,1,-397.50531005859375,0)">
  
  
  
</path><path d="M 0 421.108 C 228 421.108 455 386.892 683 386.892 C 911 386.892 1138 421.108 1366 421.108 C 1594 421.108 1821 386.892 2049 386.892 C 2277 386.892 2504 421.108 2732 421.108" fill="none" stroke="rgb(42, 163, 218)" stroke-opacity="0" stroke-width="2" data-idx="78" transform="matrix(1,0,0,1,-404.79052734375,0)">
  
  
  
</path><path d="M 0 422.905 C 228 422.905 455 385.095 683 385.095 C 911 385.095 1138 422.905 1366 422.905 C 1594 422.905 1821 385.095 2049 385.095 C 2277 385.095 2504 422.905 2732 422.905" fill="none" stroke="rgb(41, 164, 217)" stroke-opacity="0" stroke-width="2" data-idx="82" transform="matrix(1,0,0,1,-412.07574462890625,0)">
  
  
  
</path><path d="M 0 424.65 C 228 424.65 455 383.35 683 383.35 C 911 383.35 1138 424.65 1366 424.65 C 1594 424.65 1821 383.35 2049 383.35 C 2277 383.35 2504 424.65 2732 424.65" fill="none" stroke="rgb(41, 165, 216)" stroke-opacity="0" stroke-width="2" data-idx="86" transform="matrix(1,0,0,1,-419.361328125,0)">
  
  
  
</path><path d="M 0 426.343 C 228 426.343 455 381.658 683 381.658 C 911 381.658 1138 426.343 1366 426.343 C 1594 426.343 1821 381.658 2049 381.658 C 2277 381.658 2504 426.343 2732 426.343" fill="none" stroke="rgb(41, 166, 215)" stroke-opacity="0" stroke-width="2" data-idx="90" transform="matrix(1,0,0,1,-426.64654541015625,0)">
  
  
  
</path><path d="M 0 427.979 C 228 427.979 455 380.021 683 380.021 C 911 380.021 1138 427.979 1366 427.979 C 1594 427.979 1821 380.021 2049 380.021 C 2277 380.021 2504 427.979 2732 427.979" fill="none" stroke="rgb(41, 168, 213)" stroke-opacity="0" stroke-width="2" data-idx="94" transform="matrix(1,0,0,1,-433.9317626953125,0)">
  
  
  
</path><path d="M 0 429.558 C 228 429.558 455 378.442 683 378.442 C 911 378.442 1138 429.558 1366 429.558 C 1594 429.558 1821 378.442 2049 378.442 C 2277 378.442 2504 429.558 2732 429.558" fill="none" stroke="rgb(41, 169, 212)" stroke-opacity="0" stroke-width="2" data-idx="98" transform="matrix(1,0,0,1,-441.2173156738281,0)">
  
  
  
</path><path d="M 0 431.078 C 228 431.078 455 376.922 683 376.922 C 911 376.922 1138 431.078 1366 431.078 C 1594 431.078 1821 376.922 2049 376.922 C 2277 376.922 2504 431.078 2732 431.078" fill="none" stroke="rgb(40, 171, 210)" stroke-opacity="0" stroke-width="2" data-idx="102" transform="matrix(1,0,0,1,-448.5025329589844,0)">
  
  
  
</path><path d="M 0 432.539 C 228 432.539 455 375.461 683 375.461 C 911 375.461 1138 432.539 1366 432.539 C 1594 432.539 1821 375.461 2049 375.461 C 2277 375.461 2504 432.539 2732 432.539" fill="none" stroke="rgb(40, 173, 208)" stroke-opacity="0" stroke-width="2" data-idx="106" transform="matrix(1,0,0,1,-455.7877502441406,0)">
  
  
  
</path><path d="M 0 433.939 C 228 433.939 455 374.061 683 374.061 C 911 374.061 1138 433.939 1366 433.939 C 1594 433.939 1821 374.061 2049 374.061 C 2277 374.061 2504 433.939 2732 433.939" fill="none" stroke="rgb(40, 175, 206)" stroke-opacity="0" stroke-width="2" data-idx="110" transform="matrix(1,0,0,1,-463.0733337402344,0)">
  
  
  
</path><path d="M 0 435.279 C 228 435.279 455 372.721 683 372.721 C 911 372.721 1138 435.279 1366 435.279 C 1594 435.279 1821 372.721 2049 372.721 C 2277 372.721 2504 435.279 2732 435.279" fill="none" stroke="rgb(40, 178, 203)" stroke-opacity="0" stroke-width="2" data-idx="114" transform="matrix(1,0,0,1,-470.3585510253906,0)">
  
  
  
</path><path d="M 0 436.559 C 228 436.559 455 371.441 683 371.441 C 911 371.441 1138 436.559 1366 436.559 C 1594 436.559 1821 371.441 2049 371.441 C 2277 371.441 2504 436.559 2732 436.559" fill="none" stroke="rgb(39, 180, 201)" stroke-opacity="0" stroke-width="2" data-idx="118" transform="matrix(1,0,0,1,-477.6437683105469,0)">
  
  
  
</path><path d="M 0 437.78 C 228 437.78 455 370.22 683 370.22 C 911 370.22 1138 437.78 1366 437.78 C 1594 437.78 1821 370.22 2049 370.22 C 2277 370.22 2504 437.78 2732 437.78" fill="none" stroke="rgb(39, 183, 198)" stroke-opacity="0" stroke-width="2" data-idx="122" transform="matrix(1,0,0,1,-484.9293212890625,0)">
  
  
  
</path><path d="M 0 438.94 C 228 438.94 455 369.06 683 369.06 C 911 369.06 1138 438.94 1366 438.94 C 1594 438.94 1821 369.06 2049 369.06 C 2277 369.06 2504 438.94 2732 438.94" fill="none" stroke="rgb(39, 186, 195)" stroke-opacity="0" stroke-width="2" data-idx="126" transform="matrix(1,0,0,1,-492.21453857421875,0)">
  
  
  
</path><path d="M 0 440.043 C 228 440.043 455 367.957 683 367.957 C 911 367.957 1138 440.043 1366 440.043 C 1594 440.043 1821 367.957 2049 367.957 C 2277 367.957 2504 440.043 2732 440.043" fill="none" stroke="rgb(38, 188, 193)" stroke-opacity="0" stroke-width="2" data-idx="130" transform="matrix(1,0,0,1,-499.499755859375,0)">
  
  
  
</path><path d="M 0 441.088 C 228 441.088 455 366.912 683 366.912 C 911 366.912 1138 441.088 1366 441.088 C 1594 441.088 1821 366.912 2049 366.912 C 2277 366.912 2504 441.088 2732 441.088" fill="none" stroke="rgb(38, 191, 190)" stroke-opacity="0" stroke-width="2" data-idx="134" transform="matrix(1,0,0,1,-506.7853088378906,0)">
  
  
  
</path><path d="M 0 442.076 C 228 442.076 455 365.924 683 365.924 C 911 365.924 1138 442.076 1366 442.076 C 1594 442.076 1821 365.924 2049 365.924 C 2277 365.924 2504 442.076 2732 442.076" fill="none" stroke="rgb(37, 194, 187)" stroke-opacity="0" stroke-width="2" data-idx="138" transform="matrix(1,0,0,1,-514.070556640625,0)">
  
  
  
</path><path d="M 0 443.009 C 228 443.009 455 364.991 683 364.991 C 911 364.991 1138 443.009 1366 443.009 C 1594 443.009 1821 364.991 2049 364.991 C 2277 364.991 2504 443.009 2732 443.009" fill="none" stroke="rgb(37, 197, 184)" stroke-opacity="0" stroke-width="2" data-idx="142" transform="matrix(1,0,0,1,-521.3557739257812,0)">
  
  
  
</path><path d="M 0 443.887 C 228 443.887 455 364.113 683 364.113 C 911 364.113 1138 443.887 1366 443.887 C 1594 443.887 1821 364.113 2049 364.113 C 2277 364.113 2504 443.887 2732 443.887" fill="none" stroke="rgb(37, 200, 181)" stroke-opacity="0" stroke-width="2" data-idx="146" transform="matrix(1,0,0,1,-528.6412963867188,0)">
  
  
  
</path><path d="M 0 444.712 C 228 444.712 455 363.288 683 363.288 C 911 363.288 1138 444.713 1366 444.713 C 1594 444.713 1821 363.288 2049 363.288 C 2277 363.288 2504 444.713 2732 444.713" fill="none" stroke="rgb(36, 203, 178)" stroke-opacity="0" stroke-width="2" data-idx="150" transform="matrix(1,0,0,1,-535.9265747070312,0)">
  
  
  
</path><path d="M 0 445.486 C 228 445.486 455 362.514 683 362.514 C 911 362.514 1138 445.486 1366 445.486 C 1594 445.486 1821 362.514 2049 362.514 C 2277 362.514 2504 445.486 2732 445.486" fill="none" stroke="rgb(36, 206, 175)" stroke-opacity="0" stroke-width="2" data-idx="154" transform="matrix(1,0,0,1,-543.2117919921875,0)">
  
  
  
</path><path d="M 0 446.209 C 228 446.209 455 361.791 683 361.791 C 911 361.791 1138 446.209 1366 446.209 C 1594 446.209 1821 361.791 2049 361.791 C 2277 361.791 2504 446.209 2732 446.209" fill="none" stroke="rgb(36, 208, 173)" stroke-opacity="0" stroke-width="2" data-idx="158" transform="matrix(1,0,0,1,-550.497314453125,0)">
  
  
  
</path><path d="M 0 446.883 C 228 446.883 455 361.117 683 361.117 C 911 361.117 1138 446.883 1366 446.883 C 1594 446.883 1821 361.117 2049 361.117 C 2277 361.117 2504 446.883 2732 446.883" fill="none" stroke="rgb(35, 211, 170)" stroke-opacity="0" stroke-width="2" data-idx="162" transform="matrix(1,0,0,1,-557.7825317382812,0)">
  
  
  
</path><path d="M 0 447.508 C 228 447.508 455 360.492 683 360.492 C 911 360.492 1138 447.508 1366 447.508 C 1594 447.508 1821 360.492 2049 360.492 C 2277 360.492 2504 447.508 2732 447.508" fill="none" stroke="rgb(35, 213, 168)" stroke-opacity="0" stroke-width="2" data-idx="166" transform="matrix(1,0,0,1,-565.0677490234375,0)">
  
  
  
</path><path d="M 0 448.088 C 228 448.088 455 359.912 683 359.912 C 911 359.912 1138 448.088 1366 448.088 C 1594 448.088 1821 359.912 2049 359.912 C 2277 359.912 2504 448.088 2732 448.088" fill="none" stroke="rgb(35, 215, 166)" stroke-opacity="0" stroke-width="2" data-idx="170" transform="matrix(1,0,0,1,-572.3533325195312,0)">
  
  
  
</path><path d="M 0 448.621 C 228 448.621 455 359.379 683 359.379 C 911 359.379 1138 448.621 1366 448.621 C 1594 448.621 1821 359.379 2049 359.379 C 2277 359.379 2504 448.621 2732 448.621" fill="none" stroke="rgb(34, 217, 164)" stroke-opacity="0" stroke-width="2" data-idx="174" transform="matrix(1,0,0,1,-579.6385498046875,0)">
  
  
  
</path><path d="M 0 449.111 C 228 449.111 455 358.889 683 358.889 C 911 358.889 1138 449.111 1366 449.111 C 1594 449.111 1821 358.889 2049 358.889 C 2277 358.889 2504 449.111 2732 449.111" fill="none" stroke="rgb(34, 218, 163)" stroke-opacity="0" stroke-width="2" data-idx="178" transform="matrix(1,0,0,1,-586.9237670898438,0)">
  
  
  
</path><path d="M 0 449.558 C 228 449.558 455 358.442 683 358.442 C 911 358.442 1138 449.558 1366 449.558 C 1594 449.558 1821 358.442 2049 358.442 C 2277 358.442 2504 449.558 2732 449.558" fill="none" stroke="rgb(34, 220, 161)" stroke-opacity="0" stroke-width="2" data-idx="182" transform="matrix(1,0,0,1,-594.2092895507812,0)">
  
  
  
</path><path d="M 0 449.964 C 228 449.964 455 358.036 683 358.036 C 911 358.036 1138 449.964 1366 449.964 C 1594 449.964 1821 358.036 2049 358.036 C 2277 358.036 2504 449.964 2732 449.964" fill="none" stroke="rgb(34, 221, 160)" stroke-opacity="0.022727272727272728" stroke-width="2" data-idx="186" transform="matrix(1,0,0,1,-601.4945068359375,0)">
  
  
  
</path><path d="M 0 450.329 C 228 450.329 455 357.671 683 357.671 C 911 357.671 1138 450.329 1366 450.329 C 1594 450.329 1821 357.671 2049 357.671 C 2277 357.671 2504 450.329 2732 450.329" fill="none" stroke="rgb(34, 223, 158)" stroke-opacity="0.045454545454545456" stroke-width="2" data-idx="190" transform="matrix(1,0,0,1,-608.7797241210938,0)">
  
  
  
</path><path d="M 0 450.654 C 228 450.654 455 357.346 683 357.346 C 911 357.346 1138 450.654 1366 450.654 C 1594 450.654 1821 357.346 2049 357.346 C 2277 357.346 2504 450.654 2732 450.654" fill="none" stroke="rgb(34, 224, 157)" stroke-opacity="0.06818181818181818" stroke-width="2" data-idx="194" transform="matrix(1,0,0,1,-616.0653076171875,0)">
  
  
  
</path><path d="M 0 450.942 C 228 450.942 455 357.058 683 357.058 C 911 357.058 1138 450.942 1366 450.942 C 1594 450.942 1821 357.058 2049 357.058 C 2277 357.058 2504 450.942 2732 450.942" fill="none" stroke="rgb(33, 225, 156)" stroke-opacity="0.09090909090909091" stroke-width="2" data-idx="198" transform="matrix(1,0,0,1,-623.3505249023438,0)">
  
  
  
</path><path d="M 0 451.193 C 228 451.193 455 356.807 683 356.807 C 911 356.807 1138 451.193 1366 451.193 C 1594 451.193 1821 356.807 2049 356.807 C 2277 356.807 2504 451.193 2732 451.193" fill="none" stroke="rgb(33, 226, 155)" stroke-opacity="0.11363636363636363" stroke-width="2" data-idx="202" transform="matrix(1,0,0,1,-630.6357421875,0)">
  
  
  
</path><path d="M 0 451.408 C 228 451.408 455 356.592 683 356.592 C 911 356.592 1138 451.408 1366 451.408 C 1594 451.408 1821 356.592 2049 356.592 C 2277 356.592 2504 451.408 2732 451.408" fill="none" stroke="rgb(33, 226, 155)" stroke-opacity="0.13636363636363635" stroke-width="2" data-idx="206" transform="matrix(1,0,0,1,-637.9213256835938,0)">
  
  
  
</path><path d="M 0 451.588 C 228 451.588 455 356.412 683 356.412 C 911 356.412 1138 451.588 1366 451.588 C 1594 451.588 1821 356.412 2049 356.412 C 2277 356.412 2504 451.588 2732 451.588" fill="none" stroke="rgb(33, 227, 154)" stroke-opacity="0.1590909090909091" stroke-width="2" data-idx="210" transform="matrix(1,0,0,1,-645.20654296875,0)">
  
  
  
</path><path d="M 0 451.734 C 228 451.734 455 356.266 683 356.266 C 911 356.266 1138 451.734 1366 451.734 C 1594 451.734 1821 356.266 2049 356.266 C 2277 356.266 2504 451.734 2732 451.734" fill="none" stroke="rgb(33, 227, 154)" stroke-opacity="0.18181818181818182" stroke-width="2" data-idx="214" transform="matrix(1,0,0,1,-652.4917602539062,0)">
  
  
  
</path><path d="M 0 451.847 C 228 451.847 455 356.153 683 356.153 C 911 356.153 1138 451.847 1366 451.847 C 1594 451.847 1821 356.153 2049 356.153 C 2277 356.153 2504 451.847 2732 451.847" fill="none" stroke="rgb(33, 228, 153)" stroke-opacity="0.20454545454545456" stroke-width="2" data-idx="218" transform="matrix(1,0,0,1,-659.77734375,0)">
  
  
  
</path><path d="M 0 451.929 C 228 451.929 455 356.071 683 356.071 C 911 356.071 1138 451.929 1366 451.929 C 1594 451.929 1821 356.071 2049 356.071 C 2277 356.071 2504 451.929 2732 451.929" fill="none" stroke="rgb(33, 228, 153)" stroke-opacity="0.22727272727272727" stroke-width="2" data-idx="222" transform="matrix(1,0,0,1,-667.0625610351562,0)">
  
  
  
</path><path d="M 0 451.979 C 228 451.979 455 356.021 683 356.021 C 911 356.021 1138 451.979 1366 451.979 C 1594 451.979 1821 356.021 2049 356.021 C 2277 356.021 2504 451.979 2732 451.979" fill="none" stroke="rgb(33, 228, 153)" stroke-opacity="0.25" stroke-width="2" data-idx="226" transform="matrix(1,0,0,1,-674.3477172851562,0)">
  
  
  
</path><path d="M 0 451.999 C 228 451.999 455 356.001 683 356.001 C 911 356.001 1138 451.999 1366 451.999 C 1594 451.999 1821 356.001 2049 356.001 C 2277 356.001 2504 451.999 2732 451.999" fill="none" stroke="rgb(33, 228, 153)" stroke-opacity="0.2727272727272727" stroke-width="2" data-idx="230" transform="matrix(1,0,0,1,-681.63330078125,0)">
  
  
  
</path><path d="M 0 451.99 C 228 451.99 455 356.01 683 356.01 C 911 356.01 1138 451.99 1366 451.99 C 1594 451.99 1821 356.01 2049 356.01 C 2277 356.01 2504 451.99 2732 451.99" fill="none" stroke="rgb(33, 228, 153)" stroke-opacity="0.29545454545454547" stroke-width="2" data-idx="234" transform="matrix(1,0,0,1,-688.9185180664062,0)">
  
  
  
</path><path d="M 0 451.951 C 228 451.951 455 356.049 683 356.049 C 911 356.049 1138 451.951 1366 451.951 C 1594 451.951 1821 356.049 2049 356.049 C 2277 356.049 2504 451.951 2732 451.951" fill="none" stroke="rgb(33, 228, 153)" stroke-opacity="0.3181818181818182" stroke-width="2" data-idx="238" transform="matrix(1,0,0,1,-696.2037963867188,0)">
  
  
  
</path><path d="M 0 451.882 C 228 451.882 455 356.118 683 356.118 C 911 356.118 1138 451.882 1366 451.882 C 1594 451.882 1821 356.118 2049 356.118 C 2277 356.118 2504 451.882 2732 451.882" fill="none" stroke="rgb(33, 228, 153)" stroke-opacity="0.3409090909090909" stroke-width="2" data-idx="242" transform="matrix(1,0,0,1,-703.4893188476562,0)">
  
  
  
</path><path d="M 0 451.78 C 228 451.78 455 356.22 683 356.22 C 911 356.22 1138 451.78 1366 451.78 C 1594 451.78 1821 356.22 2049 356.22 C 2277 356.22 2504 451.78 2732 451.78" fill="none" stroke="rgb(34, 228, 152)" stroke-opacity="0.36363636363636365" stroke-width="2" data-idx="246" transform="matrix(1,0,0,1,-710.7745361328125,0)">
  
  
  
</path><path d="M 0 451.647 C 228 451.647 455 356.353 683 356.353 C 911 356.353 1138 451.647 1366 451.647 C 1594 451.647 1821 356.353 2049 356.353 C 2277 356.353 2504 451.647 2732 451.647" fill="none" stroke="rgb(34, 228, 152)" stroke-opacity="0.38636363636363635" stroke-width="2" data-idx="250" transform="matrix(1,0,0,1,-718.0597534179688,0)">
  
  
  
</path><path d="M 0 451.479 C 228 451.479 455 356.521 683 356.521 C 911 356.521 1138 451.479 1366 451.479 C 1594 451.479 1821 356.521 2049 356.521 C 2277 356.521 2504 451.479 2732 451.479" fill="none" stroke="rgb(35, 228, 152)" stroke-opacity="0.4090909090909091" stroke-width="2" data-idx="254" transform="matrix(1,0,0,1,-725.3452758789062,0)">
  
  
  
</path><path d="M 0 451.278 C 228 451.278 455 356.722 683 356.722 C 911 356.722 1138 451.278 1366 451.278 C 1594 451.278 1821 356.722 2049 356.722 C 2277 356.722 2504 451.278 2732 451.278" fill="none" stroke="rgb(36, 229, 151)" stroke-opacity="0.4318181818181818" stroke-width="2" data-idx="258" transform="matrix(1,0,0,1,-732.6304931640625,0)">
  
  
  
</path><path d="M 0 451.041 C 228 451.041 455 356.959 683 356.959 C 911 356.959 1138 451.041 1366 451.041 C 1594 451.041 1821 356.959 2049 356.959 C 2277 356.959 2504 451.041 2732 451.041" fill="none" stroke="rgb(37, 229, 150)" stroke-opacity="0.45454545454545453" stroke-width="2" data-idx="262" transform="matrix(1,0,0,1,-739.9157104492188,0)">
  
  
  
</path><path d="M 0 450.767 C 228 450.767 455 357.233 683 357.233 C 911 357.233 1138 450.767 1366 450.767 C 1594 450.767 1821 357.233 2049 357.233 C 2277 357.233 2504 450.767 2732 450.767" fill="none" stroke="rgb(38, 229, 149)" stroke-opacity="0.4772727272727273" stroke-width="2" data-idx="266" transform="matrix(1,0,0,1,-747.2013549804688,0)">
  
  
  
</path><path d="M 0 450.455 C 228 450.455 455 357.545 683 357.545 C 911 357.545 1138 450.455 1366 450.455 C 1594 450.455 1821 357.545 2049 357.545 C 2277 357.545 2504 450.455 2732 450.455" fill="none" stroke="rgb(40, 229, 148)" stroke-opacity="0.5" stroke-width="2" data-idx="270" transform="matrix(1,0,0,1,-754.486572265625,0)">
  
  
  
</path><path d="M 0 450.105 C 228 450.105 455 357.895 683 357.895 C 911 357.895 1138 450.105 1366 450.105 C 1594 450.105 1821 357.895 2049 357.895 C 2277 357.895 2504 450.105 2732 450.105" fill="none" stroke="rgb(41, 230, 147)" stroke-opacity="0.5227272727272727" stroke-width="2" data-idx="274" transform="matrix(1,0,0,1,-761.7717895507812,0)">
  
  
  
</path><path d="M 0 449.715 C 228 449.715 455 358.285 683 358.285 C 911 358.285 1138 449.715 1366 449.715 C 1594 449.715 1821 358.285 2049 358.285 C 2277 358.285 2504 449.715 2732 449.715" fill="none" stroke="rgb(43, 230, 146)" stroke-opacity="0.5454545454545454" stroke-width="2" data-idx="278" transform="matrix(1,0,0,1,-769.0573120117188,0)">
  
  
  
</path><path d="M 0 449.284 C 228 449.284 455 358.716 683 358.716 C 911 358.716 1138 449.284 1366 449.284 C 1594 449.284 1821 358.716 2049 358.716 C 2277 358.716 2504 449.284 2732 449.284" fill="none" stroke="rgb(45, 230, 145)" stroke-opacity="0.5681818181818182" stroke-width="2" data-idx="282" transform="matrix(1,0,0,1,-776.342529296875,0)">
  
  
  
</path><path d="M 0 448.81 C 228 448.81 455 359.19 683 359.19 C 911 359.19 1138 448.81 1366 448.81 C 1594 448.81 1821 359.19 2049 359.19 C 2277 359.19 2504 448.81 2732 448.81" fill="none" stroke="rgb(47, 231, 143)" stroke-opacity="0.5909090909090909" stroke-width="2" data-idx="286" transform="matrix(1,0,0,1,-783.6277465820312,0)">
  
  
  
</path><path d="M 0 448.293 C 228 448.293 455 359.707 683 359.707 C 911 359.707 1138 448.293 1366 448.293 C 1594 448.293 1821 359.707 2049 359.707 C 2277 359.707 2504 448.293 2732 448.293" fill="none" stroke="rgb(50, 231, 141)" stroke-opacity="0.6136363636363636" stroke-width="2" data-idx="290" transform="matrix(1,0,0,1,-790.913330078125,0)">
  
  
  
</path><path d="M 0 447.731 C 228 447.731 455 360.269 683 360.269 C 911 360.269 1138 447.731 1366 447.731 C 1594 447.731 1821 360.269 2049 360.269 C 2277 360.269 2504 447.731 2732 447.731" fill="none" stroke="rgb(53, 232, 139)" stroke-opacity="0.6363636363636364" stroke-width="2" data-idx="294" transform="matrix(1,0,0,1,-798.1985473632812,0)">
  
  
  
</path><path d="M 0 447.123 C 228 447.123 455 360.877 683 360.877 C 911 360.877 1138 447.123 1366 447.123 C 1594 447.123 1821 360.877 2049 360.877 C 2277 360.877 2504 447.123 2732 447.123" fill="none" stroke="rgb(56, 232, 137)" stroke-opacity="0.6590909090909091" stroke-width="2" data-idx="298" transform="matrix(1,0,0,1,-805.4837646484375,0)">
  
  
  
</path><g data-idx="302"></g></g><text data-watermark="true" text-anchor="middle" dominant-baseline="middle" stroke-opacity="0.1" fill="black" fill-opacity="0.1" stroke="white" stroke-width="1" font-size="15.0" x="683.0" y="320.5" data-idx="303" style="opacity: 1; font-size: 15px;">LOADING.IO</text></svg>